<svg width="129" height="66" viewBox="0 0 129 66" fill="none" xmlns="http://www.w3.org/2000/svg">
<path opacity="0.2" d="M127.744 42.1554H119.748C119.292 42.1554 118.882 42.3804 118.654 42.7628L117.424 44.6749L115.009 38.8037C114.804 38.3313 114.348 38.0164 113.824 37.9939H113.801C113.3 37.9939 112.821 38.2863 112.616 38.7362L110.179 44L107.946 38.7812C107.741 38.3313 107.285 38.0164 106.784 37.9939C106.214 37.9489 105.804 38.2413 105.576 38.6912L103.64 42.5153H96.7139C97.6252 39.501 98.1492 36.3067 98.1492 33C98.1492 14.8016 83.158 0 64.7493 0C46.3179 0 31.3266 14.8016 31.3266 33C31.3266 36.3292 31.8507 39.5235 32.762 42.5603H26.1549L23.9677 39.1411C23.7171 38.7362 23.2615 38.5112 22.7602 38.5562C22.2818 38.6012 21.8489 38.9162 21.6666 39.3436L19.4111 44.7873L16.9961 39.5685C16.7683 39.0961 16.3126 38.8262 15.7886 38.8262C15.2646 38.8262 14.809 39.1411 14.6039 39.6135L12.3256 44.9448L11.2776 42.8978C11.0498 42.4703 10.6169 42.2004 10.1157 42.2004H1.29863C0.569575 42.2004 0 42.7628 0 43.4826C0 44.2025 0.592358 44.7648 1.29863 44.7648H9.31825L11.2548 48.589C11.4826 49.0389 11.8927 49.3538 12.4623 49.2863C12.9635 49.2638 13.4192 48.9714 13.6242 48.499L15.857 43.2802L18.2948 48.544C18.4998 48.9939 18.9783 49.2863 19.4795 49.2863H19.5023C20.0263 49.2638 20.4819 48.9714 20.687 48.4765L23.102 42.6053L24.3323 44.5174C24.5601 44.8998 24.993 45.1247 25.4258 45.1247H33.4227C33.5138 45.1247 33.5822 45.1022 33.6505 45.0798C38.5489 57.317 50.6011 66 64.7038 66C78.8064 66 90.8587 57.317 95.757 45.0798H104.415C104.916 45.0798 105.349 44.8098 105.576 44.3824L106.625 42.3354L108.903 47.6667C109.108 48.1391 109.564 48.4315 110.088 48.454C110.612 48.454 111.067 48.1616 111.295 47.7117L113.71 42.4928L115.943 47.9141C116.125 48.364 116.535 48.6564 117.036 48.7014C117.538 48.7464 117.993 48.5215 118.244 48.1166L120.431 44.6973H127.699C128.428 44.6973 128.997 44.1125 128.997 43.4151C129.043 42.7403 128.473 42.1554 127.744 42.1554ZM48.8923 20.7403C49.9176 22.045 49.3708 22.6074 47.252 24.7669C47.252 23.5297 47.2292 22.4274 47.2292 21.2577C47.252 21.2577 47.252 21.2352 47.2748 21.2352L47.2064 21.2577C47.2064 20.5378 47.1836 19.7955 47.1836 18.9632C47.6848 19.4806 48.0722 19.863 48.4139 20.2229L48.8923 20.7403ZM69.3971 14.7566C72.9968 20.0429 67.7111 21.9325 65.8885 26.0266C64.4532 20.8978 65.8429 17.6135 69.3971 14.7566ZM65.41 8.93047C69.511 13.002 69.511 13.002 65.4784 17.1186C65.4328 14.3067 65.4328 12.0123 65.41 8.93047ZM70.4907 21.2127C72.6323 24.8793 71.6982 26.544 65.5695 32.7526C63.7241 27.3988 68.1668 24.8569 70.4907 21.2127ZM70.764 29.6708C69.2604 32.9325 67.7567 36.1943 66.2758 39.456C64.0203 34.4172 68.2351 32.3701 70.764 29.6708ZM82.5429 19.0982C82.5657 21.1227 82.5657 22.7873 82.5884 25.0143C79.6494 22.135 79.6494 22.0225 82.5429 19.0982ZM82.1783 31.3354C80.7658 28.456 77.0977 27.0389 79.695 23.3947C82.2695 25.2843 83.1352 27.6462 82.1783 31.3354ZM82.1328 36.5092C80.3557 33.7648 77.2344 32.1002 78.4647 27.7587C80.6291 30.4131 83.5225 32.2577 82.1328 36.5092ZM82.2923 39.1411C82.2695 39.6585 82.1328 40.2434 81.8594 40.8957C81.6771 40.5133 81.5176 40.1309 81.3354 39.7485C80.4468 37.8139 79.5583 35.8569 78.647 33.9223C80.1051 35.4744 82.3834 36.7566 82.2923 39.1411ZM86.1882 23.2147C88.7626 26.9714 84.9807 28.3436 83.7048 31.2454C82.6796 27.5787 83.682 25.2618 86.1882 23.2147ZM83.3403 19.0532C86.2565 21.955 86.2565 21.955 83.3858 24.8793C83.3858 22.8773 83.3631 21.2577 83.3403 19.0532ZM86.9856 27.8037C88.512 30.4131 87.8513 31.6053 83.477 36.0368C82.1556 32.2127 85.3224 30.3906 86.9856 27.8037ZM87.1678 33.8323C86.3021 35.6994 85.4591 37.5665 84.5933 39.4335C84.3883 39.8834 84.1605 40.3558 83.9554 40.8057C83.5909 39.9959 83.477 39.2761 83.5225 38.6687C83.682 36.5317 85.7781 35.317 87.1678 33.8323ZM63.7469 26.184C61.7875 22.1575 56.6158 20.1779 60.2611 15.0491C63.8836 17.6585 65.0911 20.9877 63.7469 26.184ZM64.2709 8.99796C64.2937 11.8548 64.3165 14.1718 64.362 17.2986C60.2155 13.227 60.2155 13.092 64.2709 8.99796ZM63.7013 33.4049C61.218 29.5583 56.8208 27.2188 58.5523 21.1452C61.5825 24.8793 65.6379 27.4663 63.7013 33.4049ZM63.6102 38.6687C63.5646 38.6462 63.4279 39.0511 63.1545 39.2761C61.6964 36.1043 60.2383 32.9325 58.7802 29.7607C61.1724 32.3027 65.0227 34.2597 63.6102 38.6687ZM47.8671 40.6033C47.8443 40.6258 47.8443 40.6708 47.8215 40.6933C47.7988 40.6483 47.7988 40.6033 47.776 40.5583C46.3179 37.0716 49.2569 35.6319 51.034 33.7423C49.9632 36.0368 48.9151 38.3313 47.8671 40.6033ZM47.3203 35.9468C46.0217 32.1227 49.1657 30.3006 50.8289 27.7137C52.3554 30.3231 51.6719 31.5153 47.3203 35.9468ZM47.5482 31.1329C46.5229 27.4888 47.5254 25.1493 50.0315 23.1022C52.606 26.8814 48.8468 28.2311 47.5482 31.1329ZM46.4318 21.5051C46.4318 22.5849 46.4546 23.6646 46.4546 24.9243C43.5156 22.045 43.5156 21.9325 46.3862 19.0082C46.409 19.8855 46.409 20.6728 46.4318 21.5051H46.3634C46.3862 21.5051 46.3862 21.5051 46.4318 21.5051ZM46.0217 31.2454C44.6091 28.3661 40.9411 26.9489 43.5383 23.3047C46.1128 25.1718 46.9786 27.5562 46.0217 31.2454ZM45.9761 36.3967C44.2218 33.6524 41.0778 31.9877 42.3081 27.6462C44.4724 30.3231 47.3659 32.1677 45.9761 36.3967ZM45.9533 40.0859C45.885 40.3108 45.7939 40.5358 45.7027 40.7832C45.5888 40.5358 45.4749 40.3108 45.361 40.0634C44.4041 37.9714 43.4472 35.9018 42.4903 33.8098C44.1763 35.6094 46.8874 36.9816 45.9533 40.0859ZM49.9176 19.8855C48.3683 17.816 46.933 16.6012 46.933 16.6012C46.933 16.6012 39.9614 23.0798 39.9614 30.1656C39.9614 34.3722 42.422 38.1963 44.3357 40.5583C43.4016 40.7382 42.3081 40.9182 41.6246 40.9407C39.6197 41.0082 36.9541 41.908 34.9264 41.953C34.5391 40.0409 33.7644 35.047 33.7644 33.0225C33.7644 16.1513 47.6621 2.42945 64.7493 2.42945C81.8366 2.42945 95.7342 16.1513 95.7342 33.0225C95.7342 35.6094 95.0052 39.9734 94.39 42.3804C94.3445 42.3804 91.5877 42.2229 87.5779 41.1432C86.9172 40.9632 86.0287 40.7157 85.2313 40.3558C87.2589 38.0613 89.6284 34.4172 89.6284 30.0082C89.6284 22.3599 82.8618 16.6237 82.8618 16.6237C82.8618 16.6237 81.6771 17.7485 80.2874 19.5256C80.2874 19.5256 80.1279 19.7055 79.9456 19.953C78.0318 22.5174 75.8902 26.2515 75.8902 30.1881C75.8902 34.5521 78.5331 38.5337 80.4696 40.8507C79.4672 43.0102 75.6852 43.5951 75.0017 43.6626C70.9919 44.0675 69.2148 42.4254 66.6403 40.5808C69.5565 37.7014 74.2726 31.9427 74.2726 24.6544C74.2726 14.1043 64.9316 6.18609 64.9316 6.18609C64.9316 6.18609 55.3172 15.1391 55.3172 24.9243C55.3172 31.4704 59.6004 37.319 62.2888 40.3783C60.7851 41.728 58.3929 42.5153 56.6158 42.6053C53.8363 42.8753 51.3074 41.728 48.5506 41.1656C50.6694 38.9836 53.7224 35.002 53.7224 29.9857C53.7224 26.1166 51.9908 22.7423 50.2821 20.3354" fill="#797979"/>
</svg>
