<svg width="20" height="20" viewBox="0 0 20 20" fill="none" xmlns="http://www.w3.org/2000/svg">
<path fill-rule="evenodd" clip-rule="evenodd" d="M9.70743 0.0690663C9.89161 -0.0230221 10.1084 -0.0230221 10.2926 0.0690663L19.6384 4.74196C19.86 4.85278 20 5.07931 20 5.3271V14.6729C20 14.9207 19.86 15.1472 19.6384 15.258L10.2926 19.9309C10.1084 20.023 9.89161 20.023 9.70743 19.9309L0.361636 15.258C0.140002 15.1472 0 14.9207 0 14.6729V5.3271C0 5.07931 0.140002 4.85278 0.361636 4.74196L9.70743 0.0690663ZM1.30841 6.33889L9.34579 9.95571V18.2873L1.30841 14.2686V6.33889ZM10.6542 18.2873L18.6916 14.2686V6.33889L10.6542 9.95571V18.2873ZM10 8.81532L17.8207 5.29599L10 1.38563L2.17928 5.29599L10 8.81532Z" fill="#530000"/>
<path d="M13.7379 7.66314L4.85938 2.99024L6.72853 2.05566L15.607 6.72856V10.6454C15.607 10.8224 15.507 10.9842 15.3487 11.0633L14.4141 11.5306C14.1034 11.686 13.7379 11.46 13.7379 11.1127V7.66314Z" fill="#530000"/>
</svg>
