<svg width="22" height="22" viewBox="0 0 22 22" fill="none" xmlns="http://www.w3.org/2000/svg">
<path d="M18.3872 4.04978C16.6227 2.17583 14.1561 0.971142 11.4109 0.861253L11.4099 0.86026L11.3502 0.858674L11.1565 0.853536L11.1554 0.853501L11.1553 0.853496C11.1058 0.851798 11.0533 0.85 11 0.85C10.9467 0.85 10.8942 0.851798 10.8446 0.853496L10.8446 0.853501L10.8435 0.853536L10.6505 0.858674L10.5908 0.860265L10.5898 0.861253C7.84551 0.971104 5.37964 2.175 3.61532 4.04786C3.61372 4.04933 3.61198 4.05098 3.61014 4.05284L3.61005 4.05275L3.60931 4.05368C3.60615 4.05691 3.60271 4.0607 3.5992 4.06504C1.89626 5.88055 0.85 8.31964 0.85 11C0.85 13.572 1.81353 15.9224 3.39566 17.7126C3.39836 17.7172 3.4015 17.722 3.40513 17.7269C3.41878 17.7455 3.43371 17.7582 3.44001 17.7633C5.21418 19.7442 7.7534 21.0254 10.589 21.1391L10.59 21.1401L10.6501 21.1417L10.8442 21.1468C10.8524 21.1471 10.8608 21.1473 10.8692 21.1475C10.9112 21.1487 10.9556 21.15 11 21.15C11.0534 21.15 11.106 21.1482 11.1556 21.1465L11.1565 21.1465L11.3495 21.1413L11.4094 21.1397L11.4104 21.1387C14.2471 21.0249 16.7875 19.7431 18.5616 17.7605C18.5633 17.7592 18.5652 17.7577 18.5671 17.756C18.5743 17.7499 18.5831 17.7415 18.5916 17.7305C18.5963 17.7246 18.6002 17.7189 18.6034 17.7136C20.1861 15.9233 21.15 13.5725 21.15 11C21.15 8.3198 20.1039 5.88084 18.4015 4.06504L18.4013 4.06481L18.4004 4.06381C18.3958 4.05828 18.3914 4.05373 18.3875 4.0501C18.3874 4.04999 18.3873 4.04989 18.3872 4.04978ZM18.6175 17.6841L18.6174 17.6845L18.6175 17.6841ZM18.5493 17.7693C18.5488 17.7697 18.5482 17.7701 18.5496 17.7691L18.5493 17.7693ZM3.38156 17.6816C3.38143 17.6813 3.38104 17.6801 3.38157 17.6817L3.38156 17.6816ZM3.90229 16.7822C2.7119 15.3236 1.96228 13.4934 1.85519 11.4948H5.692C5.74403 12.8703 6.01202 14.2083 6.47656 15.469C5.57765 15.8063 4.71551 16.2448 3.90229 16.7822ZM1.8552 10.5052C1.96779 8.4041 2.79025 6.48931 4.08861 4.9969C4.88012 5.50037 5.71729 5.91137 6.58782 6.22832C6.0521 7.57629 5.74806 9.01996 5.692 10.5052H1.8552ZM17.9114 4.9969C19.2097 6.48931 20.0322 8.4041 20.1448 10.5052H16.308C16.2519 9.01996 15.9479 7.57629 15.4122 6.22832C16.2827 5.91137 17.1199 5.50037 17.9114 4.9969ZM10.5052 2.24772V6.00436C9.63503 5.96864 8.77985 5.83989 7.94972 5.62052C8.58528 4.36622 9.44631 3.22393 10.5052 2.24772ZM7.5341 6.53434C8.49688 6.80222 9.49235 6.9563 10.5052 6.99455V10.5052H6.68218C6.73876 9.12415 7.02928 7.78429 7.5341 6.53434ZM11.4948 10.5052V6.99455C12.5076 6.95633 13.5031 6.80253 14.4663 6.53436C14.9711 7.78431 15.2616 9.12416 15.3182 10.5052H11.4948ZM11.4948 6.00436V2.24772C12.5537 3.22393 13.4147 4.36622 14.0503 5.62052C13.2201 5.83988 12.365 5.96864 11.4948 6.00436ZM15.0108 5.32165C14.4126 4.10206 13.6174 2.97924 12.651 1.99159C14.3887 2.3091 15.9564 3.11838 17.2051 4.27051C16.5071 4.69778 15.7728 5.049 15.0108 5.32165ZM6.9892 5.32165C6.22718 5.04901 5.49289 4.69779 4.79519 4.27052C6.04363 3.11842 7.6115 2.30914 9.34928 1.9916C8.38256 2.97925 7.58736 4.10208 6.9892 5.32165ZM7.41486 15.1544C6.98384 13.9943 6.73395 12.7621 6.68216 11.4948H10.5052V14.6609C9.44975 14.7006 8.41432 14.8657 7.41486 15.1544ZM10.5052 15.6511V19.7523C9.36116 18.6974 8.44882 17.4488 7.80134 16.0749C8.67704 15.8309 9.58233 15.6889 10.5052 15.6511ZM11.4948 19.7523V15.6511C12.4176 15.6886 13.3229 15.8309 14.1987 16.0746C13.5512 17.4488 12.6388 18.6974 11.4948 19.7523ZM14.5848 15.1547C13.5857 14.8657 12.5502 14.7006 11.4948 14.6609V11.4948H15.3178C15.2661 12.7621 15.0161 13.9943 14.5848 15.1547ZM16.308 11.4948H20.1448C20.0377 13.4934 19.2884 15.3237 18.0977 16.7822C17.2845 16.2449 16.4224 15.8063 15.5235 15.469C15.9883 14.2082 16.256 12.8703 16.308 11.4948ZM9.34925 20.0084C7.50934 19.6722 5.85976 18.7852 4.57805 17.5234C5.29973 17.0595 6.06174 16.6787 6.85456 16.3835C7.46641 17.7157 8.30634 18.9416 9.34925 20.0084ZM12.6509 20.0084C13.6937 18.9418 14.5336 17.716 15.1455 16.3835C15.9382 16.6787 16.7 17.0595 17.4219 17.5234C16.1402 18.7852 14.4907 19.6722 12.6509 20.0084Z" fill="#530000" stroke="#530000" stroke-width="0.3"/>
</svg>
