<svg width="22" height="22" viewBox="0 0 22 22" fill="none" xmlns="http://www.w3.org/2000/svg">
<path d="M20.2659 18.4735C20.7395 17.9845 20.9986 17.4031 20.9986 16.7964C20.9986 16.1842 20.734 15.6058 20.2494 15.1294C20.2492 15.1293 20.249 15.1291 20.2488 15.1289L17.7914 12.6816C17.3249 12.2003 16.7513 11.933 16.1346 11.933C15.5227 11.933 14.9454 12.1955 14.4617 12.6755C14.4616 12.6755 14.4616 12.6756 14.4615 12.6756L13.1498 13.973C13.1145 13.9549 13.0795 13.937 13.0451 13.9196C13.0068 13.9 12.9693 13.881 12.9333 13.8624L12.9333 13.8624L12.9305 13.861C12.7675 13.7801 12.6242 13.7088 12.5038 13.6348C11.1991 12.8124 10.0102 11.739 8.86631 10.3446C8.35531 9.70359 8.00375 9.16193 7.74454 8.62464C8.03973 8.35104 8.31799 8.07085 8.58601 7.80096C8.6181 7.76865 8.65004 7.73649 8.68185 7.7045C8.74506 7.64177 8.80816 7.57804 8.87054 7.51504L8.87083 7.51474C8.93367 7.45129 8.99576 7.38857 9.05775 7.32706C9.55938 6.82933 9.82253 6.24462 9.82253 5.64693C9.82253 5.04924 9.55938 4.46453 9.05775 3.9668L7.83464 2.75316C7.69533 2.61493 7.55429 2.47496 7.42247 2.33545L7.42249 2.33543L7.42028 2.33316C7.15174 2.05783 6.8671 1.77081 6.57242 1.50076C6.1057 1.04353 5.53818 0.792432 4.93391 0.792432C4.32909 0.792432 3.7526 1.04395 3.27267 1.50111L3.27264 1.50108L3.26974 1.50396L3.26078 1.51285L3.26078 1.51285L3.26016 1.51347L1.73748 3.03767C1.73738 3.03778 1.73727 3.03788 1.73717 3.03799C1.13056 3.64003 0.782798 4.37736 0.70692 5.22908L0.706916 5.22908L0.706814 5.23032C0.595491 6.57424 0.994246 7.81793 1.29226 8.61544C2.02742 10.5832 3.1246 12.403 4.75376 14.3464L4.75419 14.347C6.73442 16.6931 9.118 18.5469 11.8411 19.853L11.8425 19.8536C12.8778 20.3405 14.2816 20.9278 15.8576 21.0281L15.8608 21.0283C15.9543 21.0327 16.0575 21.0374 16.1525 21.0374C17.2406 21.0374 18.1637 20.6471 18.8842 19.871L18.9035 19.8502L18.9055 19.8463C18.9089 19.8422 18.9127 19.8374 18.9166 19.8319C19.1231 19.585 19.3591 19.3585 19.6175 19.1106C19.6374 19.0914 19.6575 19.0721 19.6778 19.0527C19.8713 18.8696 20.0706 18.6764 20.2659 18.4735ZM20.2659 18.4735C20.2659 18.4736 20.2658 18.4736 20.2657 18.4737L20.1221 18.3345L20.2661 18.4733C20.2661 18.4733 20.266 18.4734 20.2659 18.4735ZM18.568 17.9011C18.6029 17.8673 18.6372 17.8342 18.6709 17.8017C18.8214 17.6565 18.9604 17.5224 19.0969 17.3772L19.0994 17.3737L19.1256 17.3371L19.1879 17.2507L19.2061 17.2255L19.2076 17.2236L19.2101 17.2203L19.2118 17.2181L19.2162 17.2127L19.223 17.2051C19.2273 17.2006 19.245 17.1848 19.2592 17.1746C19.2617 17.1739 19.2642 17.1732 19.2667 17.1727C19.3579 17.0366 19.3954 16.9129 19.3951 16.8013C19.3947 16.6404 19.3159 16.4584 19.1082 16.2544L19.1076 16.2537L16.6389 13.8042L16.6389 13.8042L16.63 13.7954L16.6234 13.7888L16.6236 13.7887C16.4996 13.6538 16.3208 13.5288 16.1257 13.5288C15.9258 13.5288 15.7332 13.6622 15.59 13.8042L14.0578 15.3246L14.0557 15.3267C13.9731 15.4086 13.6903 15.6894 13.2359 15.6894C13.0533 15.6894 12.8797 15.6449 12.7034 15.5574C12.6857 15.5486 12.6695 15.5386 12.6615 15.5336L12.66 15.5327C12.654 15.5289 12.6511 15.5272 12.65 15.5265C12.6495 15.5262 12.6493 15.5261 12.6493 15.5261L12.6415 15.5222L12.6337 15.5174C12.5131 15.4431 12.3696 15.3718 12.2061 15.2907L12.2026 15.2889C12.0255 15.2011 11.8299 15.104 11.6376 14.9831C11.6376 14.983 11.6375 14.983 11.6374 14.9829L11.7439 14.8137L18.568 17.9011ZM18.568 17.9011C18.277 18.1766 17.9765 18.47 17.6929 18.8009C17.2807 19.2367 16.8018 19.4415 16.157 19.4415C16.0885 19.4415 16.0236 19.4415 15.9641 19.4375L15.9636 19.4375C14.673 19.3556 13.4654 18.8543 12.5425 18.4163C10.0329 17.2108 7.82887 15.4993 5.99657 13.3292C4.48031 11.5158 3.47198 9.84589 2.80499 8.05765L2.80478 8.05709C2.39456 6.96727 2.2512 6.13573 2.3151 5.36145C2.35589 4.88874 2.53677 4.50184 2.87496 4.16627L4.40043 2.65263C4.59611 2.47107 4.78191 2.39273 4.94287 2.39273C5.14546 2.39273 5.32539 2.51618 5.45612 2.64589L5.59699 2.50392L5.45612 2.64589L5.46284 2.65256L5.46956 2.65923L5.46948 2.65931L5.47445 2.66392C5.74388 2.91372 6.00083 3.17301 6.27374 3.45269L6.27378 3.45273C6.34388 3.52453 6.41501 3.59623 6.48604 3.66782L6.48745 3.66924C6.5582 3.74055 6.62888 3.81178 6.69947 3.88402L6.69946 3.88403L6.70164 3.8862L7.92476 5.09984C8.14325 5.31664 8.22181 5.49525 8.22181 5.64693C8.22181 5.7986 8.14325 5.97722 7.92476 6.19402C7.87946 6.23897 7.83561 6.28299 7.79242 6.32635C7.70837 6.41073 7.62681 6.4926 7.54197 6.57389L7.54191 6.57383L7.53779 6.578C7.16223 6.95953 6.80754 7.31136 6.42284 7.65359L6.42264 7.65337L6.41853 7.65745L6.41331 7.66179C6.40745 7.66677 6.39446 7.67791 6.38053 7.69529C6.16602 7.91275 6.06875 8.13852 6.0435 8.35499C6.01842 8.56997 6.06652 8.75902 6.10982 8.89505L6.10979 8.89505L6.11081 8.89808L6.12425 8.93809L6.12378 8.93825L6.12918 8.95122C6.45643 9.73785 6.91571 10.474 7.60432 11.3415L7.61169 11.3508L7.61724 11.3563L18.568 17.9011ZM18.8875 19.8658L18.8879 19.8653C18.8871 19.8662 18.8864 19.8668 18.8875 19.8658ZM19.204 17.2287C19.2045 17.2279 19.2047 17.2277 19.2037 17.2291L19.204 17.2287Z" fill="#530000" stroke="#530000" stroke-width="0.4"/>
</svg>
