<svg width="22" height="27" viewBox="0 0 22 27" fill="none" xmlns="http://www.w3.org/2000/svg">
<path d="M2.62978 5.23389C0.715832 8.03482 0.272921 11.582 1.44508 14.7177C1.76158 15.5817 2.26309 16.4172 2.9291 17.197C2.92925 17.1971 2.9294 17.1973 2.92955 17.1975L10.1892 25.821C10.3911 26.061 10.6875 26.2 11.0003 26.2C11.313 26.2 11.6094 26.0611 11.8113 25.8211C11.8114 25.8211 11.8114 25.821 11.8114 25.821L19.0691 17.1997C19.0692 17.1995 19.0694 17.1994 19.0696 17.1992C19.7383 16.4152 20.2392 15.5807 20.5532 14.7233C21.7276 11.582 21.2848 8.03487 19.3708 5.2339C17.4466 2.41751 14.394 0.8 11.0003 0.8C7.60659 0.8 4.55402 2.4175 2.62978 5.23389ZM2.62978 5.23389L2.79491 5.34673L2.62978 5.23389ZM18.5596 13.9716L18.5592 13.9729C18.3341 14.5881 17.9649 15.2017 17.4582 15.7965C17.4574 15.7973 17.4566 15.7983 17.4557 15.7992C17.4531 15.8021 17.45 15.8057 17.4465 15.8102L11.0003 23.4671L4.5467 15.8013L4.54583 15.8003C4.03774 15.2048 3.66735 14.5899 3.43939 13.9671L3.4389 13.9658C2.51161 11.4856 2.86296 8.67695 4.38192 6.45374L4.38193 6.45374C5.90475 4.22476 8.31576 2.94824 11.0003 2.94824C13.6848 2.94824 16.0955 4.2247 17.6184 6.45374L17.6184 6.45376C19.1376 8.6769 19.4893 11.4856 18.5596 13.9716Z" fill="#530000" stroke="#530000" stroke-width="0.4"/>
<path d="M11.0001 5.98652C8.21866 5.98652 5.95967 8.27398 5.95967 11.0816C5.95967 13.8893 8.21837 16.1768 11.0001 16.1768C13.7818 16.1768 16.0405 13.8893 16.0405 11.0816C16.0405 8.27428 13.7815 5.98652 11.0001 5.98652ZM11.0001 14.0285C9.39689 14.0285 8.08838 12.7084 8.08838 11.0816C8.08838 9.45477 9.39689 8.13472 11.0001 8.13472C12.6033 8.13472 13.9118 9.45477 13.9118 11.0816C13.9118 12.7084 12.6033 14.0285 11.0001 14.0285Z" fill="#530000" stroke="#530000" stroke-width="0.4"/>
</svg>
