<svg width="21" height="16" viewBox="0 0 21 16" fill="none" xmlns="http://www.w3.org/2000/svg">
<path d="M18.4251 0.976807H3.17266C1.86374 0.976807 0.798828 1.97883 0.798828 3.21044V13.6269C0.798828 14.8585 1.86374 15.8605 3.17266 15.8605H18.4251C19.734 15.8605 20.7988 14.8585 20.7988 13.6269V3.21044C20.7988 1.97883 19.734 0.976807 18.4251 0.976807ZM18.4251 13.8886H3.17266C2.98025 13.8886 2.81151 13.7663 2.81151 13.6269V4.58785L9.70976 10.2941C9.85119 10.4111 10.031 10.4756 10.2162 10.4756L11.3812 10.4756C11.5663 10.4756 11.7463 10.4111 11.8877 10.2941L18.7863 4.58765V13.627C18.7862 13.7663 18.6174 13.8886 18.4251 13.8886ZM10.7989 8.51757L4.08944 2.94874H17.5083L10.7989 8.51757Z" fill="#530000"/>
</svg>
