<svg width="30" height="30" viewBox="0 0 30 30" fill="none" xmlns="http://www.w3.org/2000/svg">
<rect width="30" height="30" rx="15" fill="#5181B8"/>
<path fill-rule="evenodd" clip-rule="evenodd" d="M24.5411 10.3343C24.6802 9.87073 24.5411 9.53003 23.8794 9.53003H21.6914C21.135 9.53003 20.8787 9.82432 20.7396 10.1489C20.7396 10.1489 19.6269 12.861 18.0505 14.6226C17.5406 15.1326 17.3088 15.2947 17.0306 15.2947C16.8915 15.2947 16.6902 15.1326 16.6902 14.669V10.3343C16.6902 9.7779 16.5288 9.53003 16.0651 9.53003H12.6268C12.2792 9.53003 12.0701 9.78821 12.0701 10.033C12.0701 10.5604 12.8581 10.682 12.9394 12.1655V15.3876C12.9394 16.0941 12.8118 16.2222 12.5336 16.2222C11.7919 16.2222 9.98773 13.4978 8.91748 10.3807C8.70774 9.77477 8.49738 9.53003 7.93819 9.53003H5.75018C5.12503 9.53003 5 9.82432 5 10.1489C5 10.7284 5.74189 13.6029 8.45393 17.4044C10.2622 20.0003 12.8093 21.4078 15.1274 21.4078C16.5183 21.4078 16.6902 21.0952 16.6902 20.5568V18.5946C16.6902 17.9695 16.822 17.8448 17.2622 17.8448C17.587 17.8448 18.1432 18.007 19.4415 19.2587C20.925 20.742 21.1694 21.4078 22.004 21.4078H24.192C24.8171 21.4078 25.1297 21.0952 24.9493 20.4784C24.7521 19.8635 24.0438 18.9718 23.1039 17.9143C22.594 17.3115 21.8289 16.6625 21.5973 16.338C21.2727 15.9207 21.3654 15.7354 21.5973 15.3647C21.5973 15.3647 24.2629 11.6094 24.5411 10.3344V10.3343Z" fill="white"/>
</svg>
