<svg width="22" height="21" viewBox="0 0 22 21" fill="none" xmlns="http://www.w3.org/2000/svg">
<path d="M4.54713 2.03325L4.44076 1.66859C4.44076 1.66856 4.44075 1.66854 4.44074 1.66852C4.19124 0.812129 3.39527 0.215039 2.50337 0.215039H1.25339C0.89168 0.215039 0.598828 0.507894 0.598828 0.869602C0.598828 1.23131 0.89168 1.52416 1.25339 1.52416H2.50337C2.81621 1.52416 3.09661 1.73451 3.18403 2.03483L3.18406 2.03493L5.98433 11.6356L4.59951 13.3664L4.59945 13.3665C4.36425 13.6607 4.23518 14.0293 4.23518 14.4057C4.23518 15.3237 4.98123 16.0697 5.89913 16.0697H18.5261C18.8878 16.0697 19.1807 15.7768 19.1807 15.4151C19.1807 15.0534 18.8878 14.7606 18.5261 14.7606H5.89913C5.70375 14.7606 5.54426 14.6011 5.54426 14.4057C5.54426 14.3252 5.57204 14.2461 5.62168 14.1844L5.62204 14.184L7.02275 12.4333H15.8423C16.6207 12.4333 17.337 11.9788 17.6688 11.2745L17.6688 11.2744L20.8409 4.53386L20.841 4.53363C20.9444 4.3131 20.9988 4.06882 20.9988 3.8259V3.69716C20.9988 2.7793 20.2528 2.03325 19.3349 2.03325H4.54713ZM19.6561 3.9766L19.6559 3.97695L16.4844 10.7168C16.3678 10.964 16.1155 11.1242 15.8423 11.1242H7.19884L4.92898 3.34233H19.3349C19.5303 3.34233 19.6898 3.50182 19.6898 3.69721V3.82594C19.6898 3.87787 19.678 3.93033 19.6561 3.9766Z" fill="#530000" stroke="#530000" stroke-width="0.4"/>
<path d="M6.25326 16.5786C5.14006 16.5786 4.23506 17.4835 4.23506 18.5968C4.23506 19.71 5.14001 20.615 6.25326 20.615C7.3665 20.615 8.27145 19.71 8.27145 18.5968C8.27145 17.4835 7.36645 16.5786 6.25326 16.5786ZM6.25326 19.3059C5.86258 19.3059 5.54418 18.9875 5.54418 18.5968C5.54418 18.2061 5.86258 17.8877 6.25326 17.8877C6.64393 17.8877 6.96233 18.2061 6.96233 18.5968C6.96233 18.9875 6.64393 19.3059 6.25326 19.3059Z" fill="#530000" stroke="#530000" stroke-width="0.4"/>
<path d="M17.1624 16.5786C16.0492 16.5786 15.1442 17.4835 15.1442 18.5968C15.1442 19.71 16.0492 20.615 17.1624 20.615C18.2757 20.615 19.1806 19.71 19.1806 18.5968C19.1806 17.4835 18.2756 16.5786 17.1624 16.5786ZM17.1624 19.3059C16.7718 19.3059 16.4534 18.9875 16.4534 18.5968C16.4534 18.2061 16.7718 17.8877 17.1624 17.8877C17.5531 17.8877 17.8715 18.2061 17.8715 18.5968C17.8715 18.9875 17.5531 19.3059 17.1624 19.3059Z" fill="#530000" stroke="#530000" stroke-width="0.4"/>
</svg>
