<svg width="21" height="20" viewBox="0 0 21 20" fill="none" xmlns="http://www.w3.org/2000/svg">
<path d="M15.0927 12.4811H14.1893L13.8692 12.1748C14.9898 10.8813 15.6645 9.20198 15.6645 7.3752C15.6645 3.30182 12.3369 0 8.23165 0C4.12644 0 0.798828 3.30182 0.798828 7.3752C0.798828 11.4486 4.12644 14.7504 8.23165 14.7504C10.0727 14.7504 11.7651 14.081 13.0687 12.969L13.3774 13.2867V14.1831L19.095 19.845L20.7988 18.1543L15.0927 12.4811ZM8.23165 12.4811C5.38431 12.4811 3.08585 10.2005 3.08585 7.3752C3.08585 4.54993 5.38431 2.26929 8.23165 2.26929C11.079 2.26929 13.3774 4.54993 13.3774 7.3752C13.3774 10.2005 11.079 12.4811 8.23165 12.4811Z" fill="#530000"/>
</svg>
