<svg width="129" height="66" viewBox="0 0 129 66" fill="none" xmlns="http://www.w3.org/2000/svg">
<path d="M126.899 41.9911H118.955C118.502 41.9911 118.095 42.2151 117.869 42.5961L116.646 44.5007L114.247 38.6524C114.044 38.1818 113.591 37.8681 113.071 37.8457H113.048C112.55 37.8457 112.075 38.137 111.871 38.5852L109.449 43.8285L107.231 38.63C107.028 38.1818 106.575 37.8681 106.077 37.8457C105.511 37.8009 105.104 38.0922 104.878 38.5404L102.954 42.3496H96.0738C96.9791 39.347 97.4996 36.1652 97.4996 32.8713C97.4996 14.7439 82.6076 0 64.3208 0C46.0113 0 31.1193 14.7439 31.1193 32.8713C31.1193 36.1876 31.6399 39.3694 32.5451 42.3944H25.9818L23.8091 38.9885C23.5601 38.5852 23.1075 38.3611 22.6096 38.4059C22.1343 38.4507 21.7043 38.7644 21.5232 39.1902L19.2827 44.6127L16.8836 39.4142C16.6573 38.9437 16.2047 38.6748 15.6841 38.6748C15.1636 38.6748 14.7109 38.9885 14.5073 39.459L12.244 44.7696L11.203 42.7305C10.9766 42.3048 10.5466 42.0359 10.0487 42.0359H1.29004C0.565806 42.0359 0 42.5961 0 43.3131C0 44.0301 0.588438 44.5903 1.29004 44.5903H9.25658L11.1803 48.3995C11.4066 48.8477 11.814 49.1614 12.3798 49.0941C12.8777 49.0717 13.3304 48.7804 13.5341 48.3099L15.752 43.1114L18.1737 48.3547C18.3774 48.8028 18.8526 49.0941 19.3506 49.0941H19.3732C19.8937 49.0717 20.3464 48.7804 20.5501 48.2875L22.9491 42.4392L24.1712 44.3438C24.3975 44.7247 24.8276 44.9488 25.2576 44.9488H33.2015C33.292 44.9488 33.3599 44.9264 33.4278 44.904C38.2937 57.0935 50.2662 65.7427 64.2755 65.7427C78.2849 65.7427 90.2573 57.0935 95.1233 44.904H103.723C104.221 44.904 104.651 44.6351 104.878 44.2094L105.919 42.1703L108.182 47.4808C108.386 47.9514 108.838 48.2427 109.359 48.2651C109.879 48.2651 110.332 47.9738 110.558 47.5256L112.957 42.3272L115.175 47.7273C115.356 48.1754 115.764 48.4667 116.262 48.5116C116.76 48.5564 117.212 48.3323 117.461 47.929L119.634 44.5231H126.854C127.578 44.5231 128.144 43.9405 128.144 43.2459C128.189 42.5736 127.623 41.9911 126.899 41.9911ZM48.5688 20.6594C49.5872 21.959 49.044 22.5192 46.9392 24.6703C46.9392 23.4379 46.9166 22.34 46.9166 21.1748C46.9392 21.1748 46.9392 21.1524 46.9619 21.1524L46.894 21.1748C46.894 20.4578 46.8713 19.7183 46.8713 18.8893C47.3692 19.4046 47.754 19.7855 48.0935 20.1441L48.5688 20.6594ZM68.9378 14.6991C72.5137 19.9648 67.263 21.847 65.4524 25.9251C64.0266 20.8163 65.4071 17.5448 68.9378 14.6991ZM64.9771 8.89565C69.0509 12.9514 69.0509 12.9514 65.045 17.0519C64.9998 14.251 64.9998 11.9654 64.9771 8.89565ZM70.0241 21.13C72.1515 24.7823 71.2236 26.4405 65.1356 32.6249C63.3023 27.292 67.7156 24.7599 70.0241 21.13ZM70.2957 29.5551C68.802 32.8041 67.3083 36.0532 65.8372 39.3022C63.5966 34.283 67.7835 32.2439 70.2957 29.5551ZM81.9966 19.0237C82.0192 21.0403 82.0192 22.6985 82.0418 24.9168C79.1223 22.0487 79.1223 21.9366 81.9966 19.0237ZM81.6344 31.2132C80.2312 28.3451 76.5875 26.9334 79.1675 23.3035C81.725 25.1857 82.585 27.5384 81.6344 31.2132ZM81.5892 36.3669C79.8239 33.6332 76.7233 31.975 77.9454 27.6505C80.0955 30.2945 82.9697 32.1319 81.5892 36.3669ZM81.7476 38.9885C81.725 39.5039 81.5892 40.0865 81.3176 40.7363C81.1365 40.3553 80.9781 39.9744 80.7971 39.5935C79.9144 37.6665 79.0317 35.7171 78.1264 33.79C79.5749 35.3361 81.8381 36.6133 81.7476 38.9885ZM85.6177 23.1242C88.1752 26.8662 84.4182 28.233 83.1508 31.1236C82.1324 27.4712 83.1282 25.1633 85.6177 23.1242ZM82.7887 18.9789C85.6856 21.8694 85.6856 21.8694 82.8339 24.7823C82.8339 22.7881 82.8113 21.1748 82.7887 18.9789ZM86.4098 27.6953C87.9262 30.2945 87.2699 31.4821 82.9245 35.8963C81.6118 32.0871 84.7577 30.2721 86.4098 27.6953ZM86.5909 33.7004C85.7309 35.5602 84.8935 37.42 84.0335 39.2798C83.8298 39.7279 83.6034 40.1985 83.3998 40.6466C83.0376 39.84 82.9245 39.1229 82.9697 38.5179C83.1282 36.3893 85.2103 35.1793 86.5909 33.7004ZM63.325 26.082C61.3786 22.0711 56.2411 20.0992 59.8622 14.9904C63.4608 17.5896 64.6603 20.9059 63.325 26.082ZM63.8455 8.96287C63.8681 11.8086 63.8908 14.1165 63.936 17.2311C59.817 13.1754 59.817 13.041 63.8455 8.96287ZM63.2797 33.2747C60.8128 29.443 56.4448 27.1127 58.1648 21.0628C61.1749 24.7823 65.2034 27.3592 63.2797 33.2747ZM63.1892 38.5179C63.1439 38.4955 63.0081 38.8989 62.7365 39.1229C61.2881 35.9635 59.8396 32.8041 58.3911 29.6447C60.7675 32.1767 64.5924 34.1261 63.1892 38.5179ZM47.5503 40.445C47.5277 40.4674 47.5277 40.5122 47.505 40.5346C47.4824 40.4898 47.4824 40.445 47.4598 40.4002C46.0113 36.927 48.9309 35.493 50.6962 33.6108C49.6325 35.8963 48.5914 38.1818 47.5503 40.445ZM47.0071 35.8067C45.7171 31.9975 48.8403 30.1825 50.4925 27.6056C52.0089 30.2049 51.3299 31.3925 47.0071 35.8067ZM47.2335 31.0115C46.215 27.3816 47.2108 25.0512 49.7004 23.0122C52.2578 26.7766 48.5235 28.121 47.2335 31.0115ZM46.1245 21.4213C46.1245 22.4968 46.1471 23.5724 46.1471 24.8272C43.2276 21.959 43.2276 21.847 46.0792 18.9341C46.1018 19.8079 46.1018 20.5922 46.1245 21.4213H46.0566C46.0792 21.4213 46.0792 21.4213 46.1245 21.4213ZM45.7171 31.1236C44.3139 28.2555 40.6701 26.8438 43.2502 23.2138C45.8076 25.0736 46.6677 27.4488 45.7171 31.1236ZM45.6718 36.2548C43.9292 33.5211 40.8059 31.863 42.028 27.5384C44.1781 30.2049 47.0524 32.0423 45.6718 36.2548ZM45.6492 39.9296C45.5813 40.1537 45.4908 40.3777 45.4002 40.6242C45.2871 40.3777 45.1739 40.1537 45.0608 39.9072C44.1102 37.8233 43.1597 35.7619 42.2091 33.678C43.8839 35.4706 46.5771 36.8374 45.6492 39.9296ZM49.5872 19.808C48.0482 17.7465 46.6224 16.5365 46.6224 16.5365C46.6224 16.5365 39.6969 22.9898 39.6969 30.048C39.6969 34.2382 42.1412 38.0474 44.0423 40.4002C43.1144 40.5794 42.028 40.7587 41.3491 40.7811C39.3574 40.8483 36.7095 41.7446 34.6952 41.7894C34.3105 39.8848 33.541 34.9104 33.541 32.8937C33.541 16.0884 47.3466 2.41998 64.3208 2.41998C81.295 2.41998 95.1006 16.0884 95.1006 32.8937C95.1006 35.4706 94.3764 39.8176 93.7653 42.2151C93.7201 42.2151 90.9816 42.0583 86.9983 40.9827C86.3419 40.8035 85.4593 40.557 84.6672 40.1985C86.6814 37.913 89.0352 34.283 89.0352 29.8912C89.0352 22.2727 82.3134 16.5589 82.3134 16.5589C82.3134 16.5589 81.1365 17.6793 79.756 19.4494C79.756 19.4494 79.5975 19.6287 79.4165 19.8752C77.5154 22.4296 75.3879 26.1492 75.3879 30.0704C75.3879 34.4174 78.0133 38.3835 79.937 40.6914C78.9412 42.8425 75.1843 43.4251 74.5053 43.4923C70.522 43.8957 68.7567 42.2599 66.1993 40.4226C69.0962 37.5544 73.7811 31.8182 73.7811 24.5583C73.7811 14.0493 64.5018 6.16198 64.5018 6.16198C64.5018 6.16198 54.951 15.08 54.951 24.8272C54.951 31.3477 59.2059 37.1735 61.8765 40.2209C60.3828 41.5653 58.0064 42.3496 56.2411 42.4392C53.4799 42.7081 50.9678 41.5653 48.2293 41.0051C50.3341 38.8316 53.3668 34.8656 53.3668 29.8688C53.3668 26.0147 51.6467 22.6537 49.9493 20.2561" fill="#530000"/>
</svg>
