<svg width="130" height="68" viewBox="0 0 130 68" fill="none" xmlns="http://www.w3.org/2000/svg">
<path d="M12.9683 0C7.76285 0 3.4401 2.19591 0 6.29642L3.62116 9.07491C6.06544 6.16198 9.70922 4.63829 12.9683 4.63829C19.1016 4.63829 22.768 9.00769 23.6733 13.87H11.7688V19.0237H17.5852H20.7764H23.6054C22.6096 23.7516 19.0337 27.9866 12.9683 28.0762C9.89028 28.1658 6.7444 26.9558 4.30012 24.4238L1.04108 27.4264C4.20959 31.2356 8.30603 32.7145 12.9683 32.7145C23.4923 32.7145 29.0824 24.4014 29.0824 16.2676C29.105 8.08899 23.4923 0 12.9683 0Z" fill="#530000"/>
<path d="M58.7759 0.492676H52.6199L40.1722 14.2283V0.492676H34.9668V32.0196H40.1722V20.5247L42.9786 17.7686L53.1178 32.0196H59.0927L46.3508 14.4075L58.7759 0.492676Z" fill="#530000"/>
<path d="M77.5608 0.0444336C68.6663 0.0444336 61.4014 6.92344 61.4014 16.4017C61.4014 25.9247 68.6663 32.6917 77.5608 32.6917C86.4552 32.6917 93.7202 25.8127 93.7202 16.4017C93.7202 7.08029 86.4552 0.0444336 77.5608 0.0444336ZM77.5608 28.0534C72.0611 28.0534 66.6294 23.9305 66.6294 16.4241C66.6294 9.0073 72.0611 4.74994 77.5155 4.70512C83.0378 4.66031 88.5374 8.96249 88.5374 16.4241C88.5374 23.9305 83.0151 28.0534 77.5608 28.0534Z" fill="#530000"/>
<path d="M123.889 23.6172C121.444 26.5301 117.778 28.0538 114.542 28.0538C107.412 28.0538 103.61 22.1607 103.61 16.4693C103.61 10.733 107.322 4.75032 114.542 4.61588C117.62 4.52625 120.765 5.73624 123.21 8.26825L126.469 5.26569C123.3 1.45647 119.204 0 114.542 0C104.018 0 98.4048 8.31306 98.4048 16.4469C98.4048 24.5807 104.018 32.6697 114.542 32.6697C119.724 32.6697 124.07 30.4738 127.51 26.3733L123.889 23.6172Z" fill="#530000"/>
<path d="M9.55077 46.943C9.55077 48.2202 9.12076 49.1613 8.26073 49.7887C7.49124 50.3489 6.45015 50.6402 5.13748 50.6402H1.81055V38.6523H8.73601V40.8034H4.14167V43.2234H5.11485C8.07967 43.201 9.55077 44.4558 9.55077 46.943ZM7.19702 46.943C7.19702 46.3156 6.99333 45.8675 6.60858 45.5986C6.29173 45.3745 5.77119 45.2849 5.09222 45.2849H4.14167V48.5115H5.09222C6.49542 48.4891 7.19702 47.9737 7.19702 46.943Z" fill="#530000"/>
<path d="M20.9573 50.6402H18.5583V42.6856L13.1945 50.6402H11.1123V38.6523H13.534V46.5621L18.8978 38.6523H20.9573V50.6402Z" fill="#530000"/>
<path d="M35.1931 44.6121C35.1931 46.3598 34.5821 47.8611 33.3826 49.0711C32.1604 50.2811 30.6893 50.8861 28.9014 50.8861C27.1361 50.8861 25.665 50.2811 24.4428 49.0487C23.2207 47.8163 22.6096 46.3374 22.6096 44.6121C22.6096 42.8867 23.2207 41.4302 24.4655 40.2203C25.6876 39.0103 27.1813 38.4053 28.924 38.4053C30.6667 38.4053 32.1604 39.0103 33.3826 40.1978C34.5821 41.4078 35.1931 42.8643 35.1931 44.6121ZM32.7262 44.5897C32.7262 43.5141 32.3641 42.573 31.6172 41.7888C30.8704 41.0045 29.9651 40.6012 28.8787 40.6012C27.815 40.6012 26.9097 41.0045 26.1629 41.7888C25.416 42.5954 25.0539 43.5141 25.0539 44.5897C25.0539 45.6652 25.416 46.6063 26.1629 47.4354C26.9097 48.242 27.815 48.6454 28.9014 48.6454C30.033 48.6454 30.9383 48.242 31.6851 47.4354C32.3867 46.6735 32.7262 45.71 32.7262 44.5897Z" fill="#530000"/>
<path d="M45.9435 50.6402H43.5219V40.8258H39.2218V50.6402H36.8228V38.6523H45.9435V50.6402Z" fill="#530000"/>
<path d="M56.3316 42.3495C56.3316 43.2458 56.1053 44.0301 55.6753 44.6799C55.2453 45.3297 54.589 45.8002 53.7516 46.0691C53.2763 46.2036 52.7557 46.2932 52.122 46.338H50.4925V50.6402H48.0935V38.6523H51.7373C52.4615 38.6523 53.0726 38.7196 53.5705 38.8316C54.4532 39.0557 55.1321 39.4814 55.6074 40.0864C56.0827 40.6914 56.3316 41.4532 56.3316 42.3495ZM50.4925 40.781V44.1869H51.7373C53.231 44.1869 53.9779 43.6267 53.9779 42.5064C53.9779 41.3636 53.2537 40.8034 51.8052 40.8034H50.4925V40.781Z" fill="#530000"/>
<path d="M64.1851 50.6402H57.667V38.6523H64.1851V40.781H60.0886V43.4923H64.1398V45.6434H60.0886V48.4667H64.1851V50.6402Z" fill="#530000"/>
<path d="M75.3425 50.6402H72.9435V40.8258H68.6433V50.6402H66.2217V38.6523H75.3425V50.6402Z" fill="#530000"/>
<path d="M87.9036 50.6399H85.2783L84.3277 48.0407H79.8239L78.8508 50.6399H76.248L81.0461 38.6296H83.1282L87.9036 50.6399ZM83.6035 46.0016L82.1098 41.5874L80.5708 46.0016H83.6035Z" fill="#530000"/>
<path d="M97.0923 42.3495C97.0923 43.2458 96.866 44.0301 96.436 44.6799C96.006 45.3297 95.3496 45.8002 94.5122 46.0691C94.0596 46.2036 93.5164 46.2932 92.8827 46.338H91.2306V50.6402H88.8315V38.6523H92.4753C93.1996 38.6523 93.8106 38.7196 94.3085 38.8316C95.1912 39.0557 95.8702 39.4814 96.3454 40.0864C96.8433 40.6914 97.0923 41.4532 97.0923 42.3495ZM91.2532 40.781V44.1869H92.498C93.9917 44.1869 94.7385 43.6267 94.7385 42.5064C94.7385 41.3636 94.0143 40.8034 92.5659 40.8034H91.2532V40.781Z" fill="#530000"/>
<path d="M107.933 50.6399H105.308L104.357 48.0407H99.8532L98.88 50.6399H96.2773L101.075 38.6296H103.158L107.933 50.6399ZM103.633 46.0016L102.139 41.5874L100.6 46.0016H103.633Z" fill="#530000"/>
<path d="M114.497 40.781H112.075V50.6402H109.676V40.781H107.277V38.6523H114.497V40.781Z" fill="#530000"/>
<path d="M123.504 46.943C123.504 48.1978 123.074 49.1613 122.191 49.7887C121.422 50.3489 120.381 50.6402 119.045 50.6402H115.786V38.6523H118.208V43.2234C119.408 43.2234 120.268 43.2906 120.811 43.4251C122.599 43.8508 123.504 45.0384 123.504 46.943ZM121.128 46.943C121.128 46.3156 120.924 45.8675 120.539 45.5986C120.222 45.3745 119.702 45.2849 119.023 45.2849H118.208V48.5115H119.023C120.426 48.4891 121.128 47.9737 121.128 46.943ZM126.831 50.6402H124.432V38.6523H126.831V50.6402Z" fill="#530000"/>
<path d="M5.27325 62.8068C5.99748 62.4931 6.49539 61.7313 6.49539 60.9022C6.49539 59.7595 5.5901 58.8184 4.48112 58.8184H1.87842V65.5405H2.78371V62.9637H4.3227L5.77116 65.5405H6.81224L5.27325 62.8068ZM2.78371 59.7146H4.48112C5.09219 59.7146 5.5901 60.2524 5.5901 60.9022C5.5901 61.552 5.09219 62.0674 4.48112 62.0674H2.78371V59.7146Z" fill="#530000"/>
<path d="M10.1166 60.6113V63.2105C10.1166 64.1964 9.64133 64.779 8.82657 64.779C8.17024 64.779 7.78549 64.3533 7.78549 63.6362V60.6113H6.90283V63.6138C6.90283 64.8462 7.6497 65.6305 8.80394 65.6305C9.32448 65.6305 9.77713 65.4736 10.1166 65.1375V65.5184H10.9993V60.5889H10.1166V60.6113Z" fill="#530000"/>
<path d="M13.6019 62.6504C12.923 62.4711 12.6061 62.3591 12.6061 62.0006C12.6061 61.5748 13.0135 61.3732 13.4209 61.3732C13.6246 61.3732 14.1225 61.418 14.3035 61.9109L14.3941 62.1574L15.1636 61.7093L15.0957 61.53C14.8241 60.8802 14.1904 60.4993 13.4209 60.4993C12.4477 60.4993 11.7235 61.1267 11.7235 62.0006C11.7235 63.0313 12.6061 63.2778 13.3304 63.4794C14.0093 63.6587 14.3262 63.7931 14.3262 64.1516C14.3262 64.5998 13.8735 64.779 13.4435 64.779C12.9003 64.779 12.5156 64.5326 12.3798 64.1516L12.2893 63.8827L11.5198 64.3533L11.5877 64.5326C11.8366 65.2496 12.5382 65.6753 13.4435 65.6753C14.462 65.6753 15.2088 65.0479 15.2088 64.1741C15.2315 63.0761 14.3262 62.852 13.6019 62.6504Z" fill="#530000"/>
<path d="M17.2911 62.6504C16.6122 62.4711 16.2953 62.3591 16.2953 62.0006C16.2953 61.5748 16.7027 61.3732 17.1101 61.3732C17.3138 61.3732 17.8117 61.418 17.9927 61.9109L18.0833 62.1574L18.8528 61.7093L18.7849 61.53C18.5133 60.8802 17.8796 60.4993 17.1101 60.4993C16.1369 60.4993 15.4127 61.1267 15.4127 62.0006C15.4127 63.0313 16.2953 63.2778 17.0196 63.4794C17.6985 63.6587 18.0154 63.7931 18.0154 64.1516C18.0154 64.5998 17.5627 64.779 17.1327 64.779C16.5896 64.779 16.2048 64.5326 16.069 64.1516L15.9785 63.8827L15.209 64.3533L15.2769 64.5326C15.5258 65.2496 16.2274 65.6753 17.1327 65.6753C18.1512 65.6753 18.898 65.0479 18.898 64.1741C18.9207 63.0761 18.038 62.852 17.2911 62.6504Z" fill="#530000"/>
<path d="M19.9164 59.9613C20.2332 59.9613 20.4822 59.6924 20.4822 59.3787C20.4822 59.065 20.2332 58.7961 19.9164 58.7961C19.5995 58.7961 19.3506 59.0426 19.3506 59.3787C19.3506 59.7148 19.5995 59.9613 19.9164 59.9613Z" fill="#530000"/>
<path d="M20.369 60.6116H19.4863V65.5412H20.369V60.6116Z" fill="#530000"/>
<path d="M25.0312 60.6111V61.1713C24.6012 60.7456 24.0354 60.5215 23.4017 60.5215C22.0212 60.5215 20.9348 61.6418 20.9348 63.0759C20.9348 64.51 22.0212 65.6303 23.4017 65.6303C24.0354 65.6303 24.6012 65.3838 25.0312 64.9805V65.5407H25.9139V60.6111H25.0312ZM25.0312 63.0759C25.0312 64.017 24.3296 64.7564 23.447 64.7564C22.5417 64.7564 21.8401 64.017 21.8401 63.0759C21.8401 62.1348 22.5417 61.3954 23.447 61.3954C24.3296 61.3954 25.0312 62.1348 25.0312 63.0759Z" fill="#530000"/>
<path d="M29.0147 60.4993C28.4941 60.4993 28.0415 60.6561 27.702 60.9922V60.6113H26.8193V65.5409H27.702V62.9417C27.702 61.9557 28.1773 61.3732 28.992 61.3732C29.6484 61.3732 30.0331 61.7989 30.0331 62.5159V65.5409H30.9158V62.5383C30.9158 61.3059 30.1689 60.4993 29.0147 60.4993Z" fill="#530000"/>
<path d="M37.9542 62.0228C38.3163 61.6867 38.5426 61.2161 38.5426 60.6783C38.5426 59.6476 37.7278 58.7961 36.732 58.7961H34.1067V65.5183H36.9357C37.9768 65.5183 38.8142 64.6444 38.8142 63.5913C38.7916 62.9639 38.4747 62.3813 37.9542 62.0228ZM36.9131 64.6444H34.9893V62.5605H36.9131C37.4563 62.5605 37.8863 63.0311 37.8863 63.5913C37.8863 64.1515 37.4336 64.6444 36.9131 64.6444ZM36.7094 61.6643H34.9893V59.7148H36.7094C37.2073 59.7148 37.6147 60.163 37.6147 60.7008C37.6147 61.2385 37.2073 61.6643 36.7094 61.6643Z" fill="#530000"/>
<path d="M39.8099 59.9613C40.1268 59.9613 40.3758 59.6924 40.3758 59.3787C40.3758 59.065 40.1268 58.7961 39.8099 58.7961C39.4931 58.7961 39.2441 59.0426 39.2441 59.3787C39.2441 59.7148 39.4931 59.9613 39.8099 59.9613Z" fill="#530000"/>
<path d="M40.2628 60.6116H39.3801V65.5412H40.2628V60.6116Z" fill="#530000"/>
<path d="M43.3406 60.4993C41.9374 60.4993 40.8511 61.6196 40.8511 63.0537C40.8511 64.4878 41.9374 65.6081 43.3406 65.6081C44.7438 65.6081 45.8302 64.4878 45.8302 63.0537C45.8302 61.6196 44.7438 60.4993 43.3406 60.4993ZM43.3406 64.7566C42.4353 64.7566 41.7337 64.0172 41.7337 63.0761C41.7337 62.135 42.4353 61.3956 43.3406 61.3956C44.2459 61.3956 44.9249 62.135 44.9249 63.0761C44.9249 64.0172 44.2233 64.7566 43.3406 64.7566Z" fill="#530000"/>
<path d="M48.9987 61.4851V60.5888H47.7087V59.2444L46.826 59.5133V60.5664H45.8755V61.4627H46.826V64.1515C46.826 64.6669 46.9618 65.0254 47.2334 65.2719C47.4597 65.4736 47.7766 65.5632 48.2066 65.5632C48.3877 65.5632 48.5914 65.5408 48.8177 65.5184L48.9987 65.496V64.6445L48.7498 64.6669C48.3198 64.7117 47.9577 64.7341 47.8219 64.5997C47.754 64.5325 47.7087 64.3756 47.7087 64.1515V61.4627H48.9987V61.4851Z" fill="#530000"/>
<path d="M51.4884 60.4993C50.0626 60.4993 49.0215 61.5748 49.0215 63.0537C49.0215 64.5326 50.0626 65.6081 51.511 65.6081C52.3937 65.6081 53.1858 65.1824 53.5932 64.4877L53.7064 64.3085L52.9369 63.8379L52.8237 64.062C52.5974 64.4878 52.1221 64.7566 51.5337 64.7566C50.7415 64.7566 50.1531 64.2861 49.972 63.5242H53.8421V63.3002C53.8421 63.2778 53.8421 63.2329 53.8421 63.2105C53.8421 63.1657 53.8421 63.1209 53.8421 63.0985C53.8421 61.8437 53.0274 60.4993 51.4884 60.4993ZM49.9494 62.6504C50.1078 61.8885 50.6963 61.3956 51.4658 61.3956C52.19 61.3956 52.7332 61.8885 52.8916 62.6504H49.9494Z" fill="#530000"/>
<path d="M58.0744 63.7257L57.9612 63.9498C57.7123 64.4652 57.1917 64.7564 56.6033 64.7564C55.698 64.7564 54.9964 64.0394 54.9964 63.0759C54.9964 62.1124 55.6754 61.3954 56.6033 61.3954C57.1917 61.3954 57.7123 61.7091 57.916 62.202L58.0291 62.4261L58.776 61.978L58.6855 61.7987C58.3234 61.0144 57.5312 60.5215 56.6033 60.5215C55.1775 60.5215 54.1138 61.6194 54.1138 63.0759C54.1138 64.5324 55.1775 65.6303 56.6033 65.6303C57.5312 65.6303 58.3234 65.1374 58.7307 64.3755L58.8213 64.1963L58.0744 63.7257Z" fill="#530000"/>
<path d="M61.4465 60.4989C60.926 60.4989 60.4734 60.6558 60.1339 60.9919V58.8184H59.2512V65.5405H60.1339V62.9413C60.1339 61.9554 60.6092 61.3728 61.4239 61.3728C62.0803 61.3728 62.465 61.7985 62.465 62.5155V65.5405H63.3477V62.5379C63.3477 61.3056 62.6008 60.4989 61.4465 60.4989Z" fill="#530000"/>
<path d="M66.3351 60.4993C65.8146 60.4993 65.362 60.6561 65.0225 60.9922V60.6113H64.1172V65.5409H64.9998V62.9417C64.9998 61.9557 65.4751 61.3732 66.2899 61.3732C66.9462 61.3732 67.331 61.7989 67.331 62.5159V65.5409H68.2136V62.5383C68.2363 61.3059 67.4894 60.4993 66.3351 60.4993Z" fill="#530000"/>
<path d="M71.201 60.4993C69.7978 60.4993 68.7114 61.6196 68.7114 63.0537C68.7114 64.4878 69.7978 65.6081 71.201 65.6081C72.6042 65.6081 73.6905 64.4878 73.6905 63.0537C73.6905 61.6196 72.5815 60.4993 71.201 60.4993ZM71.201 64.7566C70.2957 64.7566 69.5941 64.0172 69.5941 63.0761C69.5941 62.135 70.2957 61.3956 71.201 61.3956C72.1063 61.3956 72.7852 62.135 72.7852 63.0761C72.7852 64.0172 72.0836 64.7566 71.201 64.7566Z" fill="#530000"/>
<path d="M75.1615 58.5496H74.2788V65.5406H75.1615V58.5496Z" fill="#530000"/>
<path d="M78.2395 60.4993C76.8363 60.4993 75.75 61.6196 75.75 63.0537C75.75 64.4878 76.8363 65.6081 78.2395 65.6081C79.6427 65.6081 80.7291 64.4878 80.7291 63.0537C80.7291 61.6196 79.6201 60.4993 78.2395 60.4993ZM78.2395 64.7566C77.3343 64.7566 76.6327 64.0172 76.6327 63.0761C76.6327 62.135 77.3343 61.3956 78.2395 61.3956C79.1448 61.3956 79.8238 62.135 79.8238 63.0761C79.8238 64.0172 79.1222 64.7566 78.2395 64.7566Z" fill="#530000"/>
<path d="M85.1423 60.6113V61.1715C84.7123 60.7457 84.1465 60.4993 83.5128 60.4993C82.1323 60.4993 81.0459 61.6196 81.0459 63.0537C81.0459 64.4878 82.1323 65.6081 83.5128 65.6081C84.1465 65.6081 84.7123 65.3616 85.1423 64.9359V65.0703C85.1423 65.989 84.5765 66.5268 83.6486 66.5268C82.9244 66.5268 82.4265 66.2803 82.2001 65.7874L82.087 65.5633L81.3175 66.0114L81.408 66.1907C81.7701 66.9525 82.5849 67.4007 83.6486 67.4007C85.0518 67.4007 86.025 66.4372 86.025 65.0703V60.5889H85.1423V60.6113ZM83.5354 64.7566C82.6302 64.7566 81.9286 64.0172 81.9286 63.0761C81.9286 62.135 82.6302 61.3956 83.5354 61.3956C84.4407 61.3956 85.1423 62.135 85.1423 63.0761C85.1423 64.0172 84.4407 64.7566 83.5354 64.7566Z" fill="#530000"/>
<path d="M90.1442 60.6116L88.7863 64.2191L87.202 60.6116H86.2515L88.3336 65.4067L88.2657 65.5636C88.1073 65.9221 87.7905 66.5271 87.202 66.4823L86.9531 66.4598V67.3337L87.1568 67.3561C87.202 67.3561 87.2473 67.3561 87.2925 67.3561C88.062 67.3561 88.741 66.7735 89.1031 65.8324L91.0721 60.634H90.1442V60.6116Z" fill="#530000"/>
<path d="M95.8474 61.6868C94.9195 61.3731 94.5121 61.1714 94.5121 60.6112C94.5121 60.0062 94.9648 59.6253 95.6437 59.6253C96.4358 59.6253 96.8206 60.1407 96.979 60.5664L97.0696 60.8129L97.8617 60.3647L97.7938 60.1855C97.4317 59.2668 96.6169 58.729 95.6437 58.729C94.4442 58.729 93.5842 59.5357 93.5842 60.6336C93.5842 61.8884 94.6253 62.2245 95.6211 62.5606H95.6437C96.5943 62.8743 97.0469 63.1208 97.0469 63.7034C97.0469 64.3532 96.5716 64.7341 95.7569 64.7341C94.9195 64.7341 94.3537 64.3532 94.1726 63.6362L94.0821 63.3449L93.2673 63.8379L93.3126 63.9947C93.6295 65.003 94.5574 65.6304 95.7343 65.6304C97.0469 65.6304 97.9522 64.8462 97.9522 63.681C97.9975 62.4262 96.8432 62.0229 95.8474 61.6868Z" fill="#530000"/>
<path d="M100.894 60.4993C99.4911 60.4993 98.4048 61.6196 98.4048 63.0537C98.4048 64.4878 99.4911 65.6081 100.894 65.6081C102.298 65.6081 103.384 64.4878 103.384 63.0537C103.384 61.6196 102.298 60.4993 100.894 60.4993ZM100.894 64.7566C99.989 64.7566 99.2874 64.0172 99.2874 63.0761C99.2874 62.135 99.989 61.3956 100.894 61.3956C101.8 61.3956 102.479 62.135 102.479 63.0761C102.479 64.0172 101.8 64.7566 100.894 64.7566Z" fill="#530000"/>
<path d="M104.855 58.5496H103.972V65.5406H104.855V58.5496Z" fill="#530000"/>
<path d="M108.838 60.6113V63.2105C108.838 64.1964 108.363 64.779 107.548 64.779C106.892 64.779 106.507 64.3533 106.507 63.6362V60.6113H105.625V63.6138C105.625 64.8462 106.371 65.6305 107.526 65.6305C108.046 65.6305 108.499 65.4736 108.838 65.1375V65.5184H109.721V60.5889H108.838V60.6113Z" fill="#530000"/>
<path d="M113.274 61.4851V60.5888H111.984V59.2444L111.101 59.5133V60.5664H110.151V61.4627H111.101V64.1515C111.101 64.6669 111.237 65.0254 111.509 65.2719C111.735 65.4736 112.052 65.5632 112.482 65.5632C112.663 65.5632 112.867 65.5408 113.093 65.5184L113.274 65.496V64.6445L113.025 64.6669C112.595 64.7117 112.233 64.7341 112.097 64.5997C112.029 64.5325 111.984 64.3756 111.984 64.1515V61.4627H113.274V61.4851Z" fill="#530000"/>
<path d="M114.293 59.9613C114.609 59.9613 114.858 59.6924 114.858 59.3787C114.858 59.065 114.609 58.7961 114.293 58.7961C113.976 58.7961 113.727 59.0426 113.727 59.3787C113.727 59.7148 113.976 59.9613 114.293 59.9613Z" fill="#530000"/>
<path d="M114.745 60.6116H113.863V65.5412H114.745V60.6116Z" fill="#530000"/>
<path d="M117.823 60.4993C116.42 60.4993 115.334 61.6196 115.334 63.0537C115.334 64.4878 116.42 65.6081 117.823 65.6081C119.226 65.6081 120.313 64.4878 120.313 63.0537C120.313 61.6196 119.226 60.4993 117.823 60.4993ZM117.823 64.7566C116.918 64.7566 116.216 64.0172 116.216 63.0761C116.216 62.135 116.918 61.3956 117.823 61.3956C118.729 61.3956 119.408 62.135 119.408 63.0761C119.408 64.0172 118.729 64.7566 117.823 64.7566Z" fill="#530000"/>
<path d="M123.097 60.4993C122.576 60.4993 122.123 60.6561 121.784 60.9922V60.6113H120.901V65.5409H121.784V62.9417C121.784 61.9557 122.259 61.3732 123.074 61.3732C123.73 61.3732 124.115 61.7989 124.115 62.5159V65.5409H124.998V62.5383C124.998 61.3059 124.251 60.4993 123.097 60.4993Z" fill="#530000"/>
<path d="M127.51 62.6504C126.831 62.4711 126.514 62.3591 126.514 62.0006C126.514 61.5748 126.921 61.3732 127.329 61.3732C127.533 61.3732 128.03 61.418 128.211 61.9109L128.302 62.1574L129.072 61.7093L129.004 61.53C128.732 60.8802 128.098 60.4993 127.329 60.4993C126.356 60.4993 125.631 61.1267 125.631 62.0006C125.631 63.0313 126.514 63.2778 127.238 63.4794C127.917 63.6587 128.234 63.7931 128.234 64.1516C128.234 64.5998 127.781 64.779 127.351 64.779C126.808 64.779 126.424 64.5326 126.288 64.1516L126.197 63.8827L125.428 64.3533L125.496 64.5326C125.745 65.2496 126.446 65.6753 127.351 65.6753C128.37 65.6753 129.117 65.0479 129.117 64.1741C129.139 63.0761 128.234 62.852 127.51 62.6504Z" fill="#530000"/>
</svg>
